<svg width="24" height="24" viewBox="0 0 24 24" fill="none" xmlns="http://www.w3.org/2000/svg">
<path d="M12.35 21H5C4.46957 21 3.96086 20.7893 3.58579 20.4142C3.21071 20.0391 3 19.5304 3 19V10C2.99976 9.70865 3.06318 9.42077 3.18582 9.15649C3.30846 8.89221 3.48736 8.65792 3.71 8.47L10.71 2.47C11.0708 2.16544 11.5278 1.99837 12 1.99837C12.4722 1.99837 12.9292 2.16544 13.29 2.47L20.29 8.47C20.5126 8.65792 20.6915 8.89221 20.8142 9.15649C20.9368 9.42077 21.0002 9.70865 21 10V12.35" stroke="white" stroke-width="1.2" stroke-linecap="round" stroke-linejoin="round"/>
<path d="M14.8 12.4C14.7069 12.2758 14.5861 12.175 14.4472 12.1056C14.3084 12.0361 14.1552 12 14 12H10C9.73478 12 9.48043 12.1054 9.29289 12.2929C9.10536 12.4804 9 12.7348 9 13V21" stroke="white" stroke-width="1.2" stroke-linecap="round" stroke-linejoin="round"/>
<path d="M15 18H21" stroke="#FF383C" stroke-width="1.2" stroke-linecap="round" stroke-linejoin="round"/>
<path d="M18 15V21" stroke="#FF383C" stroke-width="1.2" stroke-linecap="round" stroke-linejoin="round"/>
</svg>
