<svg width="24" height="24" viewBox="0 0 24 24" fill="none" xmlns="http://www.w3.org/2000/svg">
<path d="M16 22H18C18.5304 22 19.0391 21.7893 19.4142 21.4142C19.7893 21.0391 20 20.5304 20 20V8C20.0008 7.68311 19.9388 7.3692 19.8176 7.07639C19.6964 6.78358 19.5185 6.51767 19.294 6.294L15.706 2.706C15.4823 2.48152 15.2164 2.30356 14.9236 2.18238C14.6308 2.06121 14.3169 1.99922 14 2H6C5.46957 2 4.96086 2.21071 4.58579 2.58579C4.21071 2.96086 4 3.46957 4 4V6.85" stroke="white" stroke-linecap="round" stroke-linejoin="round"/>
<path d="M14 2V7C14 7.26522 14.1054 7.51957 14.2929 7.70711C14.4804 7.89464 14.7348 8 15 8H20" stroke="white" stroke-linecap="round" stroke-linejoin="round"/>
<path d="M8 14V16.2L9.6 17.2" stroke="#FF383C" stroke-linecap="round" stroke-linejoin="round"/>
<path d="M8 22C11.3137 22 14 19.3137 14 16C14 12.6863 11.3137 10 8 10C4.68629 10 2 12.6863 2 16C2 19.3137 4.68629 22 8 22Z" stroke="#FF383C" stroke-linecap="round" stroke-linejoin="round"/>
</svg>
