<svg width="24" height="24" viewBox="0 0 24 24" fill="none" xmlns="http://www.w3.org/2000/svg">
<path d="M9 13C9 12.7348 8.89464 12.4804 8.70711 12.2929C8.51957 12.1054 8.26522 12 8 12H5.061C4.83453 12.0442 4.59975 12.0087 4.39646 11.8996C4.19317 11.7904 4.03388 11.6143 3.94559 11.4011C3.8573 11.188 3.84546 10.9508 3.91206 10.7299C3.97865 10.509 4.1196 10.3179 4.311 10.189L11.147 3.354C11.2591 3.24192 11.3921 3.153 11.5386 3.09234C11.685 3.03168 11.842 3.00046 12.0005 3.00046C12.159 3.00046 12.316 3.03168 12.4624 3.09234C12.6089 3.153 12.7419 3.24192 12.854 3.354L19.689 10.189C19.8804 10.3179 20.0213 10.509 20.0879 10.7299C20.1545 10.9508 20.1427 11.188 20.0544 11.4011C19.9661 11.6143 19.8068 11.7904 19.6035 11.8996C19.4003 12.0087 19.1655 12.0442 18.939 12H16C15.7348 12 15.4804 12.1054 15.2929 12.2929C15.1054 12.4804 15 12.7348 15 13V15C15 15.2652 14.8946 15.5196 14.7071 15.7071C14.5196 15.8946 14.2652 16 14 16H10C9.73478 16 9.48043 15.8946 9.29289 15.7071C9.10536 15.5196 9 15.2652 9 15V13Z" stroke="white" stroke-linecap="round" stroke-linejoin="round"/>
<path d="M9 20H15" stroke="#FF383C" stroke-linecap="round" stroke-linejoin="round"/>
</svg>
